<svg width="185" height="28" viewBox="0 0 185 28" fill="none" xmlns="http://www.w3.org/2000/svg">
<g clip-path="url(#clip0)">
<path d="M17.7059 11.5294C17.7059 10.064 16.9358 8.77576 15.7795 8.04584C16.2099 7.54211 16.4706 6.88933 16.4706 6.17648C16.4706 4.58712 15.1775 3.29413 13.5882 3.29413C11.9989 3.29413 10.7059 4.58712 10.7059 6.17648C10.7059 6.88933 10.9666 7.54211 11.3969 8.04584C10.2407 8.77576 9.4706 10.064 9.4706 11.5294V12.353H17.7059V11.5294ZM12.3529 6.17648C12.3529 5.49531 12.9071 4.94119 13.5882 4.94119C14.2694 4.94119 14.8235 5.49531 14.8235 6.17648C14.8235 6.85765 14.2694 7.41178 13.5882 7.41178C12.9071 7.41178 12.3529 6.85765 12.3529 6.17648ZM11.2588 10.7059C11.5986 9.74725 12.5145 9.05884 13.5882 9.05884C14.662 9.05884 15.5778 9.74725 15.9177 10.7059H11.2588Z" fill="white"/>
<path d="M6.58824 14H13.1765V15.6471H6.58824V14Z" fill="white"/>
<path d="M6.58824 17.2941H20.5882V18.9412H6.58824V17.2941Z" fill="white"/>
<path d="M27.1765 2.47059C27.1765 1.10831 26.0682 0 24.7059 0H7.27451C5.0797 0 3.29412 1.78558 3.29412 3.98039V22.2353H0.823532V23.0588C0.823532 25.7834 3.04014 28 5.76471 28H20.5882C22.4046 28 23.8824 26.5223 23.8824 24.7059V8.23529H27.1765V2.47059ZM5.76471 26.3529C4.23261 26.3529 2.94138 25.3016 2.57479 23.8824H17.2941V24.7059C17.2941 25.3054 17.4552 25.8682 17.7362 26.3529H5.76471ZM22.2353 24.7059C22.2353 25.6141 21.4964 26.3529 20.5882 26.3529C19.6801 26.3529 18.9412 25.6141 18.9412 24.7059V22.2353H4.94118V3.98039C4.94118 2.69376 5.98789 1.64706 7.27451 1.64706H22.3769C22.2855 1.90482 22.2353 2.18191 22.2353 2.47059V24.7059ZM25.5294 6.58824H23.8824V2.47059C23.8824 2.01649 24.2517 1.64706 24.7059 1.64706C25.16 1.64706 25.5294 2.01649 25.5294 2.47059V6.58824Z" fill="white"/>
</g>
<path d="M44.4763 23.36C42.7483 23.36 41.2683 22.984 40.0363 22.232C38.8043 21.472 37.8563 20.416 37.1923 19.064C36.5363 17.712 36.2083 16.144 36.2083 14.36C36.2083 12.576 36.5363 11.008 37.1923 9.656C37.8563 8.304 38.8043 7.252 40.0363 6.5C41.2683 5.74 42.7483 5.36 44.4763 5.36C46.4683 5.36 48.1283 5.86 49.4563 6.86C50.7843 7.852 51.7163 9.192 52.2523 10.88L49.3363 11.684C49.0003 10.556 48.4283 9.676 47.6203 9.044C46.8123 8.404 45.7643 8.084 44.4763 8.084C43.3163 8.084 42.3483 8.344 41.5723 8.864C40.8043 9.384 40.2243 10.116 39.8323 11.06C39.4483 11.996 39.2523 13.096 39.2443 14.36C39.2443 15.624 39.4363 16.728 39.8203 17.672C40.2123 18.608 40.7963 19.336 41.5723 19.856C42.3483 20.376 43.3163 20.636 44.4763 20.636C45.7643 20.636 46.8123 20.316 47.6203 19.676C48.4283 19.036 49.0003 18.156 49.3363 17.036L52.2523 17.84C51.7163 19.528 50.7843 20.872 49.4563 21.872C48.1283 22.864 46.4683 23.36 44.4763 23.36ZM58.8063 23L53.3583 5.72H56.3343L60.8943 20.192L65.5143 5.72H68.4903L63.0423 23H58.8063ZM76.098 23V5.72H83.238C83.406 5.72 83.622 5.728 83.886 5.744C84.15 5.752 84.394 5.776 84.618 5.816C85.618 5.968 86.442 6.3 87.09 6.812C87.746 7.324 88.23 7.972 88.542 8.756C88.862 9.532 89.022 10.396 89.022 11.348C89.022 12.756 88.666 13.968 87.954 14.984C87.242 15.992 86.15 16.616 84.678 16.856L83.442 16.964H78.99V23H76.098ZM86.022 23L82.614 15.968L85.554 15.32L89.298 23H86.022ZM78.99 14.264H83.118C83.278 14.264 83.458 14.256 83.658 14.24C83.858 14.224 84.042 14.192 84.21 14.144C84.69 14.024 85.066 13.812 85.338 13.508C85.618 13.204 85.814 12.86 85.926 12.476C86.046 12.092 86.106 11.716 86.106 11.348C86.106 10.98 86.046 10.604 85.926 10.22C85.814 9.828 85.618 9.48 85.338 9.176C85.066 8.872 84.69 8.66 84.21 8.54C84.042 8.492 83.858 8.464 83.658 8.456C83.458 8.44 83.278 8.432 83.118 8.432H78.99V14.264ZM98.3337 23.36C97.0217 23.36 95.8697 23.076 94.8777 22.508C93.8857 21.94 93.1097 21.152 92.5497 20.144C91.9977 19.136 91.7217 17.976 91.7217 16.664C91.7217 15.248 91.9937 14.02 92.5377 12.98C93.0817 11.932 93.8377 11.12 94.8057 10.544C95.7737 9.968 96.8937 9.68 98.1657 9.68C99.5097 9.68 100.65 9.996 101.586 10.628C102.53 11.252 103.23 12.136 103.686 13.28C104.142 14.424 104.314 15.772 104.202 17.324H101.334V16.268C101.326 14.86 101.078 13.832 100.59 13.184C100.102 12.536 99.3337 12.212 98.2857 12.212C97.1017 12.212 96.2217 12.58 95.6457 13.316C95.0697 14.044 94.7817 15.112 94.7817 16.52C94.7817 17.832 95.0697 18.848 95.6457 19.568C96.2217 20.288 97.0617 20.648 98.1657 20.648C98.8777 20.648 99.4897 20.492 100.002 20.18C100.522 19.86 100.922 19.4 101.202 18.8L104.058 19.664C103.562 20.832 102.794 21.74 101.754 22.388C100.722 23.036 99.5817 23.36 98.3337 23.36ZM93.8697 17.324V15.14H102.786V17.324H93.8697ZM110.414 23L105.71 10.04H108.602L111.866 19.436L115.118 10.04H118.022L113.318 23H110.414ZM120.916 8.072V5.42H123.808V8.072H120.916ZM120.916 23V10.04H123.808V23H120.916ZM133.795 23.36C132.483 23.36 131.331 23.076 130.339 22.508C129.347 21.94 128.571 21.152 128.011 20.144C127.459 19.136 127.183 17.976 127.183 16.664C127.183 15.248 127.455 14.02 127.999 12.98C128.543 11.932 129.299 11.12 130.267 10.544C131.235 9.968 132.355 9.68 133.627 9.68C134.971 9.68 136.111 9.996 137.047 10.628C137.991 11.252 138.691 12.136 139.147 13.28C139.603 14.424 139.775 15.772 139.663 17.324H136.795V16.268C136.787 14.86 136.539 13.832 136.051 13.184C135.563 12.536 134.795 12.212 133.747 12.212C132.563 12.212 131.683 12.58 131.107 13.316C130.531 14.044 130.243 15.112 130.243 16.52C130.243 17.832 130.531 18.848 131.107 19.568C131.683 20.288 132.523 20.648 133.627 20.648C134.339 20.648 134.951 20.492 135.463 20.18C135.983 19.86 136.383 19.4 136.663 18.8L139.519 19.664C139.023 20.832 138.255 21.74 137.215 22.388C136.183 23.036 135.043 23.36 133.795 23.36ZM129.331 17.324V15.14H138.247V17.324H129.331ZM145.131 23L141.171 10.016L144.003 10.04L146.535 18.356L149.103 10.04H151.539L154.095 18.356L156.639 10.04H159.471L155.511 23H153.255L150.315 14.084L147.387 23H145.131ZM167.56 23.36C166.248 23.36 165.096 23.076 164.104 22.508C163.112 21.94 162.336 21.152 161.776 20.144C161.224 19.136 160.948 17.976 160.948 16.664C160.948 15.248 161.22 14.02 161.764 12.98C162.308 11.932 163.064 11.12 164.032 10.544C165 9.968 166.12 9.68 167.392 9.68C168.736 9.68 169.876 9.996 170.812 10.628C171.756 11.252 172.456 12.136 172.912 13.28C173.368 14.424 173.54 15.772 173.428 17.324H170.56V16.268C170.552 14.86 170.304 13.832 169.816 13.184C169.328 12.536 168.56 12.212 167.512 12.212C166.328 12.212 165.448 12.58 164.872 13.316C164.296 14.044 164.008 15.112 164.008 16.52C164.008 17.832 164.296 18.848 164.872 19.568C165.448 20.288 166.288 20.648 167.392 20.648C168.104 20.648 168.716 20.492 169.228 20.18C169.748 19.86 170.148 19.4 170.428 18.8L173.284 19.664C172.788 20.832 172.02 21.74 170.98 22.388C169.948 23.036 168.808 23.36 167.56 23.36ZM163.096 17.324V15.14H172.012V17.324H163.096ZM176.606 23V10.04H179.162V13.196L178.85 12.788C179.01 12.356 179.222 11.964 179.486 11.612C179.758 11.252 180.082 10.956 180.458 10.724C180.778 10.508 181.13 10.34 181.514 10.22C181.906 10.092 182.306 10.016 182.714 9.992C183.122 9.96 183.518 9.976 183.902 10.04V12.74C183.518 12.628 183.074 12.592 182.57 12.632C182.074 12.672 181.626 12.812 181.226 13.052C180.826 13.268 180.498 13.544 180.242 13.88C179.994 14.216 179.81 14.6 179.69 15.032C179.57 15.456 179.51 15.916 179.51 16.412V23H176.606Z" fill="white"/>
<defs>
<clipPath id="clip0">
<rect width="28" height="28" fill="white"/>
</clipPath>
</defs>
</svg>
