<svg width="32" height="32" viewBox="0 0 32 32" fill="none" xmlns="http://www.w3.org/2000/svg">
<path d="M16 0C7.164 0 0 7.164 0 16C0 24.836 7.164 32 16 32C24.836 32 32 24.836 32 16C32 7.164 24.836 0 16 0ZM16 26.2133C14.7493 26.2133 13.8933 25.2493 13.8933 24C13.8933 22.7147 14.7853 21.7867 16 21.7867C17.284 21.7867 18.1067 22.7147 18.1067 24C18.1067 25.2507 17.284 26.2133 16 26.2133ZM16.8293 17.7613C16.5107 18.848 15.5067 18.8667 15.172 17.7613C14.7867 16.4867 13.4173 11.648 13.4173 8.50533C13.4173 4.35867 18.6053 4.33867 18.6053 8.50533C18.604 11.6667 17.1613 16.6307 16.8293 17.7613Z" fill="white"/>
</svg>
