<svg width="32" height="32" viewBox="0 0 32 32" fill="none" xmlns="http://www.w3.org/2000/svg">
<g clip-path="url(#clip0)">
<path d="M27.3146 4.68586C21.0662 -1.56193 10.9352 -1.56263 4.68598 4.68586C-1.5625 10.9343 -1.56181 21.0653 4.68598 27.3145C10.9345 33.5616 21.0655 33.5623 27.3146 27.3145C33.5624 21.0653 33.5617 10.935 27.3146 4.68586ZM18.0866 22.9569C18.0866 24.1096 17.1523 25.0439 15.9996 25.0439C14.8469 25.0439 13.9126 24.1096 13.9126 22.9569V14.6089C13.9126 13.4561 14.8469 12.5219 15.9996 12.5219C17.1523 12.5219 18.0866 13.4561 18.0866 14.6089V22.9569ZM15.9627 11.0415C14.7606 11.0415 13.9592 10.19 13.9843 9.13882C13.9592 8.03689 14.7606 7.21113 15.9871 7.21113C17.2143 7.21113 17.9906 8.03758 18.0164 9.13882C18.0157 10.19 17.2149 11.0415 15.9627 11.0415Z" fill="white"/>
</g>
<defs>
<clipPath id="clip0">
<rect width="32" height="32" fill="white"/>
</clipPath>
</defs>
</svg>
