<svg width="16" height="16" viewBox="0 0 16 16" fill="none" xmlns="http://www.w3.org/2000/svg">
<path d="M13.3333 5.33343H11.3333V4.14009C11.3333 2.40009 10.06 0.84676 8.32663 0.680093C6.33996 0.493426 4.66663 2.05343 4.66663 4.00009V5.33343H2.66663V14.6668H13.3333V5.33343ZM7.99996 11.3334C7.26663 11.3334 6.66663 10.7334 6.66663 10.0001C6.66663 9.26676 7.26663 8.66676 7.99996 8.66676C8.73329 8.66676 9.33329 9.26676 9.33329 10.0001C9.33329 10.7334 8.73329 11.3334 7.99996 11.3334ZM5.99996 5.33343V4.00009C5.99996 2.89343 6.89329 2.00009 7.99996 2.00009C9.10663 2.00009 9.99996 2.89343 9.99996 4.00009V5.33343H5.99996Z" fill="#98989E"/>
</svg>
