<?xml version="1.0" encoding="iso-8859-1"?>
<!-- Generator: Adobe Illustrator 19.0.0, SVG Export Plug-In . SVG Version: 6.00 Build 0)  -->
<svg version="1.1" id="Layer_1" xmlns="http://www.w3.org/2000/svg" xmlns:xlink="http://www.w3.org/1999/xlink" x="0px" y="0px"
	 viewBox="0 0 512 512" style="enable-background:new 0 0 512 512;" xml:space="preserve">
<g>
	<g>
		<path d="M412.217,16.856H19.629C8.789,16.856,0,25.645,0,36.486v353.329c0,10.841,8.789,19.629,19.629,19.629h225.304
			c-2.145-6.361-3.86-12.917-5.132-19.629c-1.217-6.41-2.024-12.961-2.386-19.629c-0.147-2.701-0.226-5.419-0.226-8.155
			c0-10.664,1.137-21.069,3.279-31.103H111.233c-10.841,0-19.629-8.789-19.629-19.629s8.789-19.629,19.629-19.629h143.665
			c25.15-46.689,74.503-78.494,131.147-78.494c2.193,0,4.373,0.058,6.543,0.152c6.665,0.291,13.218,1.01,19.629,2.153
			c6.709,1.195,13.26,2.85,19.629,4.914V36.486C431.847,25.645,423.058,16.856,412.217,16.856z M176.665,95.362
			c10.841,0,19.629,8.777,19.629,19.618v0.024c0,10.841-8.789,19.629-19.629,19.629c-10.841,0-19.629-8.789-19.629-19.629
			C157.035,104.163,165.824,95.362,176.665,95.362z M255.182,252.409H137.406c-10.841,0-19.629-8.789-19.629-19.629
			c0-10.841,8.789-19.629,19.629-19.629h117.776c10.841,0,19.629,8.789,19.629,19.629
			C274.812,243.62,266.023,252.409,255.182,252.409z M274.812,115.003c0,10.841-8.789,19.629-19.629,19.629
			c-10.841,0-19.629-8.789-19.629-19.629c0-10.841,8.789-19.641,19.629-19.641c10.841,0,19.629,8.777,19.629,19.618V115.003z
			 M353.329,115.003c0,10.841-8.789,19.629-19.629,19.629c-10.841,0-19.629-8.789-19.629-19.629
			c0-10.841,8.789-19.641,19.629-19.641c10.841,0,19.629,8.777,19.629,19.618V115.003z"/>
	</g>
</g>
<g>
	<g>
		<path d="M506.25,461.632l-5.201-5.201l-13.953-13.953l-13.988-13.989c14.119-18.452,22.533-41.487,22.533-66.461
			c0-44.086-26.179-82.149-63.796-99.53c-6.251-2.888-12.813-5.208-19.629-6.886c-6.347-1.561-12.906-2.571-19.629-2.971
			c-2.167-0.128-4.345-0.212-6.543-0.212c-33.667,0-63.824,15.272-83.944,39.235c-9.539,11.363-16.808,24.679-21.13,39.259
			c-2.926,9.867-4.523,20.299-4.523,31.103c0,2.747,0.136,5.46,0.335,8.155c0.499,6.728,1.581,13.292,3.244,19.629
			c1.789,6.822,4.214,13.39,7.22,19.629c17.71,36.759,55.341,62.186,98.799,62.186c21.291,0,41.171-6.124,58.009-16.672
			l14.199,14.199l14.095,14.097l6.143,6.143c3.833,3.833,8.857,5.75,13.879,5.75c5.023,0,10.048-1.917,13.879-5.75
			C513.917,481.726,513.917,469.297,506.25,461.632z M386.045,432.369c-20.532,0-39.035-8.846-51.905-22.924
			c-5.258-5.751-9.57-12.377-12.7-19.629c-2.653-6.141-4.444-12.736-5.245-19.629c-0.311-2.679-0.488-5.395-0.488-8.155
			c0-38.785,31.554-70.339,70.339-70.339c2.206,0,4.386,0.115,6.543,0.314c6.878,0.639,13.464,2.274,19.629,4.757
			c7.211,2.901,13.827,6.961,19.629,11.952c15.006,12.91,24.537,32.016,24.537,53.316
			C456.383,400.814,424.83,432.369,386.045,432.369z"/>
	</g>
</g>
<g>
</g>
<g>
</g>
<g>
</g>
<g>
</g>
<g>
</g>
<g>
</g>
<g>
</g>
<g>
</g>
<g>
</g>
<g>
</g>
<g>
</g>
<g>
</g>
<g>
</g>
<g>
</g>
<g>
</g>
</svg>
