<svg viewBox="1 -20 511.999 511" xmlns="http://www.w3.org/2000/svg"><path d="m287.128906 140.304688c8.230469 4.746093 15.308594 9.300781 21.5625 13.328124 16.917969 10.886719 27.128906 17.460938 41.6875 17.460938 36.152344 0 67.050782-27.304688 71.136719-62.386719-12.464844 1.582031-25.003906 2.386719-37.441406 2.386719-42.917969 0-75.808594 16.511719-96.945313 29.210938zm0 0"/><path d="m224.871094 140.304688c-8.230469 4.746093-15.308594 9.300781-21.5625 13.328124-16.917969 10.886719-27.128906 17.460938-41.6875 17.460938-36.152344 0-67.050782-27.304688-71.136719-62.386719 12.464844 1.582031 25.003906 2.386719 37.441406 2.386719 42.917969 0 75.808594 16.511719 96.945313 29.210938zm0 0"/><path d="m423.011719 17.402344c-12.921875 2.445312-26.015625 3.691406-38.9375 3.691406-43.769531 0-86.414063 10.929688-128.074219 33.371094-41.617188-22.441406-84.277344-33.371094-128.074219-33.371094-12.921875 0-26.015625-1.246094-38.9375-3.691406l-88.988281-16.902344v99.976562c0 50.285157 23.707031 94.695313 60 124.171876v246.445312h30v-227.078125c21.40625 10.585937 46.167969 17.078125 71.621094 17.078125 39.703125 0 64.480468-15.238281 94.480468-34.273438 30.003907 19.089844 54.292969 34.273438 94.277344 34.273438 88.5625 0 161.621094-72.054688 161.621094-160.617188v-99.960937zm28.988281 83.074218c0 55.488282-46.132812 100.617188-101.621094 100.617188-23.378906 0-39.390625-10.3125-57.917968-22.234375-10.195313-6.5625-21.59375-13.902344-36.460938-21.167969-14.28125 7.019532-25.519531 14.238282-35.582031 20.714844-18.925781 12.171875-35.273438 22.6875-58.796875 22.6875-55.488282 0-101.621094-45.128906-101.621094-100.617188v-27.511718l17.796875 3.382812c16.582031 3.152344 33.441406 4.746094 50.128906 4.746094 59.859375 0 98.074219 25.269531 128.074219 43.140625 30-17.957031 68.433594-43.140625 128.074219-43.140625 16.671875 0 33.53125-1.59375 50.128906-4.746094l17.796875-3.382812zm0 0"/></svg>