<svg width="64" height="64" viewBox="0 0 64 64" fill="none" xmlns="http://www.w3.org/2000/svg">
<g clip-path="url(#clip0)">
<path d="M38.6666 57.3183C37.9302 57.3196 37.3322 56.7236 37.3308 55.9873C37.3302 55.6323 37.4712 55.2916 37.7226 55.0409L60.7813 31.985L37.7226 8.929C37.2109 8.39937 37.2257 7.55525 37.7553 7.04362C38.2721 6.54462 39.0912 6.54462 39.6078 7.04362L63.6078 31.0436C64.1283 31.5643 64.1283 32.4083 63.6078 32.929L39.6078 56.929C39.3581 57.1783 39.0196 57.3183 38.6666 57.3183Z" fill="black" fill-opacity="0.25"/>
<path d="M62.6666 33.3183H1.33337C0.597 33.3183 0 32.7214 0 31.985C0 31.2486 0.597 30.6516 1.33337 30.6516H62.6668C63.4031 30.6516 64.0001 31.2486 64.0001 31.985C64 32.7214 63.403 33.3183 62.6666 33.3183Z" fill="black" fill-opacity="0.25"/>
</g>
<defs>
<clipPath id="clip0">
<rect width="64" height="64" fill="white"/>
</clipPath>
</defs>
</svg>
