<svg width="64" height="64" viewBox="0 0 64 64" fill="none" xmlns="http://www.w3.org/2000/svg">
<path d="M56.0001 58.6666H50.6667V48.3732C50.6667 43.9066 48.4454 39.7599 44.7281 37.2799L36.8081 32L44.7281 26.7174C48.4455 24.2374 50.6667 20.0907 50.6667 15.624V5.33337H56.0001C57.4721 5.33337 58.6667 4.13875 58.6667 2.66675C58.6667 1.192 57.4721 0 56.0001 0H48.0001H16.0001H8.00012C6.52812 0 5.3335 1.192 5.3335 2.66663C5.3335 4.13863 6.52812 5.33325 8.00012 5.33325H13.3335V15.6239C13.3335 20.0905 15.5549 24.2373 19.2721 26.7173L27.1921 32L19.2721 37.28C15.5547 39.76 13.3335 43.9066 13.3335 48.3734V58.6668H8.00012C6.52812 58.6668 5.3335 59.8587 5.3335 61.3334C5.3335 62.8054 6.52812 64 8.00012 64H16.0001H48.0001H56.0001C57.4721 64 58.6667 62.8054 58.6667 61.3334C58.6667 59.8586 57.4721 58.6666 56.0001 58.6666ZM23.7095 20.0614C22.2215 19.072 21.3335 17.4134 21.3335 15.624V13.3334C21.3335 11.8587 22.5281 10.6667 24.0001 10.6667C25.4721 10.6667 26.6667 11.8587 26.6667 13.3334V15.624L33.4801 20.1654C34.7041 20.984 35.0347 22.6374 34.2187 23.864C33.7041 24.6346 32.8587 25.0506 31.9974 25.0506C31.4907 25.0506 30.976 24.904 30.52 24.6026L23.7095 20.0614ZM42.6667 50.6666C42.6667 52.1386 41.4721 53.3332 40.0001 53.3332C38.5281 53.3332 37.3335 52.1386 37.3335 50.6666V48.3732L30.5201 43.8319C29.2961 43.0132 28.9655 41.3599 29.7815 40.1333C30.5975 38.9093 32.2535 38.5786 33.4801 39.3946L40.2907 43.936C41.7787 44.9254 42.6667 46.584 42.6667 48.3734V50.6666Z" fill="white"/>
</svg>
