<svg width="64" height="64" viewBox="0 0 64 64" fill="none" xmlns="http://www.w3.org/2000/svg">
<path d="M49.3334 56.2454V46.1734C49.3334 42.7147 47.84 39.4214 45.2347 37.1414L39.3574 32L45.2347 26.8586C47.8401 24.5786 49.3334 21.2853 49.3334 17.8266V7.75462C50.8826 7.20262 52 5.736 52 4C52 1.79463 50.2054 0 48 0H16C13.7946 0 12 1.79463 12 4C12 5.736 13.1174 7.20262 14.6666 7.75462V17.8266C14.6666 21.2853 16.16 24.5786 18.7652 26.8586L24.6426 32L18.7652 37.1414C16.1599 39.4214 14.6666 42.7147 14.6666 46.1734V56.2454C13.1174 56.7974 12 58.264 12 60C12 62.2054 13.7946 64 16 64H48C50.2054 64 52 62.2054 52 60C52 58.264 50.8826 56.7974 49.3334 56.2454ZM46.6666 56H17.3334V46.1734C17.3334 43.4827 18.496 40.9228 20.52 39.1494L27.544 33.0028C27.8346 32.7494 28 32.3841 28 32.0001C28 31.6161 27.8346 31.2507 27.544 30.9975L20.52 24.8509C18.496 23.0775 17.3334 20.5175 17.3334 17.8269V8H46.6668V17.8266C46.6668 20.5173 45.5041 23.0772 43.4801 24.8506L36.4561 30.9972C36.1654 31.2506 36 31.616 36 32C36 32.384 36.1654 32.7494 36.456 33.0026L43.48 39.1493C45.5066 40.9226 46.6666 43.4826 46.6666 46.1732V56Z" fill="white"/>
<path d="M43.7093 51.168L33.0427 37.8346C32.536 37.2026 31.4667 37.2026 30.96 37.8346L20.2934 51.168C19.9734 51.568 19.9121 52.1174 20.1334 52.5786C20.3548 53.04 20.8214 53.3333 21.3334 53.3333H42.6668C43.1788 53.3333 43.6454 53.0399 43.8694 52.5786C44.0905 52.1174 44.0293 51.568 43.7093 51.168Z" fill="white"/>
<path d="M38.5652 22.1574C38.3598 21.6587 37.8718 21.3334 37.3332 21.3334H26.6666C26.1279 21.3334 25.6399 21.6587 25.4346 22.1574C25.2266 22.656 25.3412 23.2267 25.7226 23.6107L31.0559 28.9441C31.3173 29.2027 31.6586 29.3335 31.9999 29.3335C32.3413 29.3335 32.6826 29.2029 32.9439 28.9441L38.2773 23.6107C38.6584 23.2294 38.7732 22.656 38.5652 22.1574Z" fill="white"/>
</svg>
