<svg width="128" height="128" viewBox="0 0 128 128" fill="none" xmlns="http://www.w3.org/2000/svg">
<path d="M18.6667 32H45.3333C46.8053 32 48 30.8 48 29.3333V2.66675C48 1.19475 49.1947 0 50.6667 0H104C108.411 0 112 3.58925 112 8V120C112 124.411 108.411 128 104 128H24C19.5892 128 16 124.411 16 120V34.6668C16 33.1948 17.1947 32 18.6667 32ZM21.3333 120C21.3333 121.467 22.528 122.667 24 122.667H104C105.472 122.667 106.667 121.467 106.667 120V8C106.667 6.53325 105.472 5.33325 104 5.33325H53.3333V29.3333C53.3333 33.744 49.744 37.3332 45.3333 37.3332H21.3333V120Z" fill="black" fill-opacity="0.25"/>
<path d="M16.784 32.784L48.784 0.783998C49.824 -0.256002 51.5147 -0.256002 52.5547 0.783998C53.5947 1.824 53.5947 3.51475 52.5547 4.55475L20.5547 36.5547C20.032 37.072 19.3495 37.3335 18.6667 37.3335C17.984 37.3335 17.3015 37.0722 16.784 36.5547C15.744 35.5147 15.744 33.824 16.784 32.784Z" fill="black" fill-opacity="0.25"/>
</svg>
