<?xml version="1.0" encoding="iso-8859-1"?>
<!-- Generator: Adobe Illustrator 18.0.0, SVG Export Plug-In . SVG Version: 6.00 Build 0)  -->
<!DOCTYPE svg PUBLIC "-//W3C//DTD SVG 1.1//EN" "http://www.w3.org/Graphics/SVG/1.1/DTD/svg11.dtd">
<svg version="1.1" id="Capa_1" xmlns="http://www.w3.org/2000/svg" xmlns:xlink="http://www.w3.org/1999/xlink" x="0px" y="0px"
	 viewBox="0 0 329.992 329.992" style="enable-background:new 0 0 329.992 329.992;" xml:space="preserve">
<g>
	<path d="M15.71,119.318h109.317c2.762,0,5-2.239,5-5V5c0-2.761-2.238-5-5-5H15.71c-2.763,0-5,2.239-5,5v109.318
		C10.71,117.08,12.947,119.318,15.71,119.318z"/>
	<path d="M73.904,191.456c-1.951-1.952-5.119-1.952-7.07,0l-65,65c-1.953,1.953-1.953,5.119,0,7.071l65,65
		c0.976,0.976,2.256,1.464,3.535,1.464c1.279,0,2.56-0.488,3.535-1.464l65-65c1.953-1.953,1.953-5.119,0-7.071L73.904,191.456z"/>
	<path d="M230.201,119.174h62.949c1.786,0,3.436-0.953,4.33-2.5l31.473-54.514c0.893-1.547,0.893-3.453,0-5L297.48,2.645
		c-0.893-1.547-2.544-2.5-4.33-2.5h-62.949c-1.787,0-3.438,0.953-4.33,2.5L194.398,57.16c-0.893,1.547-0.893,3.453,0,5
		l31.473,54.514C226.765,118.221,228.414,119.174,230.201,119.174z"/>
	<path d="M266.061,196.432c-35.049,0-63.563,28.513-63.563,63.561c0,35.048,28.514,63.563,63.563,63.563
		c35.049,0,63.563-28.514,63.563-63.563C329.623,224.945,301.109,196.432,266.061,196.432z"/>
	<path d="M65.369,126.496c-1.933,0-3.5,1.567-3.5,3.5v46c0,1.933,1.567,3.5,3.5,3.5h8c1.933,0,3.5-1.567,3.5-3.5v-46
		c0-1.933-1.567-3.5-3.5-3.5H65.369z"/>
	<path d="M261.061,128.164c-1.933,0-3.5,1.567-3.5,3.5v46c0,1.933,1.567,3.5,3.5,3.5h8c1.933,0,3.5-1.567,3.5-3.5v-46
		c0-1.933-1.567-3.5-3.5-3.5H261.061z"/>
	<path d="M181.246,53.336h-34.918c-1.934,0-3.5,1.567-3.5,3.5v8c0,1.933,1.566,3.5,3.5,3.5h34.918c1.932,0,3.5-1.567,3.5-3.5v-8
		C184.746,54.903,183.178,53.336,181.246,53.336z"/>
</g>
<g>
</g>
<g>
</g>
<g>
</g>
<g>
</g>
<g>
</g>
<g>
</g>
<g>
</g>
<g>
</g>
<g>
</g>
<g>
</g>
<g>
</g>
<g>
</g>
<g>
</g>
<g>
</g>
<g>
</g>
</svg>
